<?xml version="1.0" standalone="no"?><!DOCTYPE svg PUBLIC "-//W3C//DTD SVG 1.1//EN" "http://www.w3.org/Graphics/SVG/1.1/DTD/svg11.dtd"><svg t="1643010207961" class="icon" viewBox="0 0 1024 1024" version="1.1" xmlns="http://www.w3.org/2000/svg" p-id="4760" xmlns:xlink="http://www.w3.org/1999/xlink" width="400" height="400"><defs><style type="text/css"></style></defs><path d="M457.6 517.7l-80-80c-3.9-3.9-3.9-10.3 0-14.2l111.8-111.8c3.9-3.9 10.3-3.9 14.2 0l111.8 111.8c3.9 3.9 3.9 10.3 0 14.2l-80 80h281.1c7.5-27.8 11.6-57 11.6-87.1C828 247.5 679.6 99 496.5 99c-183.1 0-331.6 148.4-331.6 331.6 0 30.2 4 59.4 11.6 87.1h281.1zM876.7 550.3H116.3c-42.2 37.3-42.2 97.9 0 135.2L420.2 921c42.2 37.3 110.5 37.3 152.6 0l303.9-235.5c42.1-37.3 42.1-97.8 0-135.2zM701.3 669.4H291.7c-13.1 0-23.8-9.5-23.8-21.1 0-11.6 10.7-21.1 23.8-21.1h409.5c13.1 0 23.8 9.5 23.8 21.1 0.1 11.6-10.7 21.1-23.7 21.1z" p-id="4761"></path></svg>