<?xml version="1.0" standalone="no"?><!DOCTYPE svg PUBLIC "-//W3C//DTD SVG 1.1//EN" "http://www.w3.org/Graphics/SVG/1.1/DTD/svg11.dtd"><svg t="1631416234751" class="icon" viewBox="0 0 1024 1024" version="1.1" xmlns="http://www.w3.org/2000/svg" p-id="4931" xmlns:xlink="http://www.w3.org/1999/xlink" width="200" height="200"><defs><style type="text/css"></style></defs><path d="M920 232a64 64 0 0 1 64 64v432a64 64 0 0 1-64 64H104a64 64 0 0 1-64-64V296a64 64 0 0 1 64-64h816z m-8 72H112v416h800V304z" fill="#333333" p-id="4932"></path><path d="M224 512m-64 0a64 64 0 1 0 128 0 64 64 0 1 0-128 0Z" fill="#333333" p-id="4933"></path><path d="M352 480m16 0l480 0q16 0 16 16l0 40q0 16-16 16l-480 0q-16 0-16-16l0-40q0-16 16-16Z" fill="#333333" p-id="4934"></path></svg>