<?xml version="1.0" standalone="no"?><!DOCTYPE svg PUBLIC "-//W3C//DTD SVG 1.1//EN" "http://www.w3.org/Graphics/SVG/1.1/DTD/svg11.dtd"><svg t="1639883941778" class="icon" viewBox="0 0 1024 1024" version="1.1" xmlns="http://www.w3.org/2000/svg" p-id="5496" xmlns:xlink="http://www.w3.org/1999/xlink" width="200" height="200"><defs><style type="text/css"></style></defs><path d="M372.373333 149.333333a32 32 0 0 0-21.674666 9.386667l-277.333334 277.333333A32 32 0 0 0 64 458.666667v192C64 726.869333 126.464 789.333333 202.666667 789.333333h512c76.202667 0 138.666667-62.464 138.666666-138.666666v-362.666667C853.333333 211.797333 790.869333 149.333333 714.666667 149.333333h-341.333334v0.042667A32 32 0 0 0 372.373333 149.333333zM405.333333 213.333333h309.333334c41.6 0 74.666667 33.066667 74.666666 74.666667v362.666667c0 41.6-33.066667 74.666667-74.666666 74.666666h-512C161.066667 725.333333 128 692.266667 128 650.666667V490.666667h181.333333c52.650667 0 96-43.349333 96-96V213.333333z m-64 45.248V394.666667c0 18.048-13.952 32-32 32H173.248L341.333333 258.581333z m554.666667 19.370667V672c0 88.32-71.68 160-160 160H192.64c24.746667 38.4 67.84 64 116.693333 64h426.666667C859.52 896 960 795.52 960 672v-277.333333c0-48.853333-25.6-91.946667-64-116.693334z" p-id="5497"></path></svg>