<?xml version="1.0" standalone="no"?><!DOCTYPE svg PUBLIC "-//W3C//DTD SVG 1.1//EN" "http://www.w3.org/Graphics/SVG/1.1/DTD/svg11.dtd"><svg t="1639993986377" class="icon" viewBox="0 0 1024 1024" version="1.1" xmlns="http://www.w3.org/2000/svg" p-id="6951" xmlns:xlink="http://www.w3.org/1999/xlink" width="400" height="400"><defs><style type="text/css"></style></defs><path d="M238.90507 947.000023H121.980937a24.329524 24.329524 0 0 1 0-48.659048h116.924133a24.329524 24.329524 0 0 1 0 48.659048zM738.040092 947.000023H411.561615a24.329524 24.329524 0 1 1 0-48.659048h326.478477a52.694189 52.694189 0 0 0 52.634849-52.634849V178.293874a24.329524 24.329524 0 1 1 48.659048 0v667.42412a101.388841 101.388841 0 0 1-101.293897 101.282029z" fill="#0E4F53" p-id="6952"></path><path d="M815.004465 793.00007a24.317656 24.317656 0 0 1-7.702372-47.389166l130.323173-43.44897-69.072112-190.55358a24.331898 24.331898 0 0 1 45.739505-16.615285l77.569644 214.028604a24.317656 24.317656 0 0 1-15.179249 31.39102l-153.988086 51.34123a24.198975 24.198975 0 0 1-7.690503 1.246147z" fill="#CDC1AD" p-id="6953"></path><path d="M404.333966 1023.964396a24.341392 24.341392 0 0 1-17.208688-7.120837L330.538365 960.256647l-56.598781 56.586912a24.317656 24.317656 0 0 1-41.538211-17.196819V871.329269a24.329524 24.329524 0 0 1 48.659048 0v69.629911l32.281124-32.269256a24.305788 24.305788 0 0 1 34.417376 0l32.269257 32.269256v-69.629911a24.329524 24.329524 0 0 1 48.659048 0v128.341207a24.317656 24.317656 0 0 1-24.35326 24.29392z" fill="#9B4537" p-id="6954"></path><path d="M121.933465 947.000023A101.388841 101.388841 0 0 1 20.663304 845.717994V178.293874a24.329524 24.329524 0 1 1 48.659049 0v667.42412a52.694189 52.694189 0 0 0 52.62298 52.634849 24.329524 24.329524 0 1 1 0 48.659048z" fill="#0E4F53" p-id="6955"></path><path d="M738.040092 870.000046H121.980937a24.329524 24.329524 0 0 1 0-48.659048h616.059155a52.694189 52.694189 0 0 0 52.634849-52.634848V101.293897a52.694189 52.694189 0 0 0-52.634849-52.634849H121.980937a24.329524 24.329524 0 0 1 0-48.659048h616.059155a101.388841 101.388841 0 0 1 101.282029 101.282029v667.435989a101.388841 101.388841 0 0 1-101.282029 101.282028z" fill="#0E4F53" p-id="6956"></path><path d="M121.933465 870.000046A101.388841 101.388841 0 0 1 20.663304 768.718018V101.293897A101.388841 101.388841 0 0 1 121.933465 0.011868a24.329524 24.329524 0 1 1 0 48.659048 52.694189 52.694189 0 0 0-52.622981 52.634849v667.412253a52.694189 52.694189 0 0 0 52.622981 52.634848 24.329524 24.329524 0 1 1 0 48.659048zM173.322167 870.000046a24.317656 24.317656 0 0 1-24.329524-24.317656V50.000139a24.329524 24.329524 0 0 1 48.659048 0v795.682251a24.317656 24.317656 0 0 1-24.329524 24.317656zM815.004465 741.65884A24.341392 24.341392 0 0 1 792.08724 709.152222l160.491783-449.360377-54.225169-108.462205h-76.228553a24.329524 24.329524 0 0 1 0-48.659048h91.253518a24.329524 24.329524 0 0 1 21.766023 13.45838l65.59477 131.189542a24.365128 24.365128 0 0 1 1.186806 19.060105l-164.016596 459.151526a24.35326 24.35326 0 0 1-22.905357 16.128695z" fill="#0E4F53" p-id="6957"></path><path d="M953.314842 308.189796a24.210844 24.210844 0 0 1-7.690503-1.258014l-98.39809-32.791451a24.329524 24.329524 0 0 1-15.428479-30.773881l32.80332-98.386222a24.333085 24.333085 0 0 1 46.154887 15.428478l-25.112816 75.302844 75.374053 25.136553a24.317656 24.317656 0 0 1-7.702372 47.389165z" fill="#0E4F53" p-id="6958"></path><path d="M561.051705 562.581674a24.341392 24.341392 0 0 1-11.310262-2.788994L463.341963 514.373612l-86.411349 45.419068a24.305788 24.305788 0 0 1-35.283744-25.635011l16.496604-96.202499-69.902877-68.146403a24.329524 24.329524 0 0 1 13.482117-41.538212l96.594145-14.01618 43.211608-87.550682a24.341392 24.341392 0 0 1 43.626991 0l43.19974 87.550682 96.594145 14.01618a24.329524 24.329524 0 0 1 13.482117 41.538212l-69.902877 68.146403 16.508473 96.202499a24.29392 24.29392 0 0 1-23.973483 28.483345zM463.341963 462.605132a24.270184 24.270184 0 0 1 11.310261 2.788994l54.106488 28.424005-10.33708-60.230407a24.341392 24.341392 0 0 1 7.002155-21.528662l43.769408-42.665678-60.527109-8.770496a24.400732 24.400732 0 0 1-18.312418-13.304096l-27.04731-54.818572-27.059178 54.818572a24.376996 24.376996 0 0 1-18.312417 13.304096l-60.527109 8.770496 43.769408 42.665678a24.29392 24.29392 0 0 1 7.025891 21.504926l-10.325212 60.230407 54.09462-28.424005a24.317656 24.317656 0 0 1 11.369602-2.765258z" fill="#9B4537" p-id="6959"></path></svg>