<?xml version="1.0" standalone="no"?><!DOCTYPE svg PUBLIC "-//W3C//DTD SVG 1.1//EN" "http://www.w3.org/Graphics/SVG/1.1/DTD/svg11.dtd"><svg t="1632388507420" class="icon" viewBox="0 0 1024 1024" version="1.1" xmlns="http://www.w3.org/2000/svg" p-id="17425" xmlns:xlink="http://www.w3.org/1999/xlink" width="200" height="200"><defs><style type="text/css"></style></defs><path d="M523.744254 347.038724a221.866667 93.866667 14.359 1 0 46.557251-181.868708 221.866667 93.866667 14.359 1 0-46.557251 181.868708Z" fill="#5CBFB5" p-id="17426"></path><path d="M454.4 279.466667c59.733333 23.466667 125.866667 34.133333 166.4 32 25.6 0 44.8-14.933333 42.666667-38.4-2.133333-21.333333-17.066667-38.4-40.533334-59.733334L597.333333 196.266667c-2.133333-2.133333-10.666667-4.266667-14.933333-4.266667h-8.533333c-8.533333 0-14.933333 8.533333-12.8 17.066667 0 4.266667 2.133333 8.533333 6.4 10.666666l23.466666 17.066667c23.466667 17.066667 34.133333 34.133333 21.333334 36.266667 0 0-14.933333 0-29.866667-2.133334-17.066667-2.133333-46.933333-10.666667-64-14.933333-17.066667-4.266667-70.4-23.466667-96-42.666667-32-23.466667-55.466667-53.333333-55.466667-53.333333-8.533333-8.533333-19.2-10.666667-32-4.266667C230.4 206.933333 149.333333 302.933333 117.333333 422.4c0 2.133333-2.133333 4.266667-4.266666 4.266667-44.8 10.666667-76.8 51.2-76.8 100.266666 0 49.066667 32 89.6 76.8 100.266667 2.133333 0 4.266667 2.133333 4.266666 4.266667C164.266667 812.8 328.533333 938.666667 516.266667 938.666667s352-128 398.933333-307.2c0-2.133333 2.133333-4.266667 4.266667-4.266667 44.8-10.666667 76.8-51.2 76.8-100.266667 0-51.2-32-91.733333-81.066667-100.266666C868.266667 245.333333 704 115.2 514.133333 115.2h-25.6c-23.466667 2.133333-21.333333 19.2-21.333333 19.2s0 23.466667 23.466667 21.333333h23.466666c179.2 0 330.666667 128 362.666667 302.933334 4.266667 19.2 19.2 32 40.533333 29.866666H923.733333c14.933333 0 34.133333 6.4 34.133334 36.266667 0 21.333333-14.933333 36.266667-34.133334 36.266667h-4.266666c-19.2-2.133333-36.266667 10.666667-40.533334 29.866666-32 174.933333-185.6 302.933333-362.666666 302.933334-179.2 0-330.666667-128-362.666667-302.933334-2.133333-17.066667-21.333333-29.866667-40.533333-29.866666H106.666667c-19.2 0-34.133333-17.066667-34.133334-36.266667 0-19.2 14.933333-36.266667 34.133334-36.266667h4.266666c19.2 2.133333 36.266667-10.666667 40.533334-29.866666 19.2-104.533333 74.666667-198.4 181.333333-258.133334 2.133333-2.133333 6.4 0 8.533333 0 17.066667 21.333333 66.133333 59.733333 113.066667 78.933334z m0 0" fill="" p-id="17427"></path><path d="M625.066667 488.533333c0 17.066667 8.533333 29.866667 21.333333 38.4 14.933333 8.533333 29.866667 8.533333 44.8 0 14.933333-8.533333 21.333333-23.466667 21.333333-38.4 0-17.066667-8.533333-29.866667-21.333333-38.4-12.8-8.533333-29.866667-8.533333-44.8 0-12.8 8.533333-21.333333 21.333333-21.333333 38.4z m-309.333334 0c0 25.6 19.2 44.8 44.8 44.8 23.466667 0 44.8-21.333333 44.8-44.8s-19.2-44.8-44.8-44.8c-25.6 0-44.8 19.2-44.8 44.8z m279.466667 170.666667s-23.466667 32-81.066667 32c-55.466667 0-78.933333-29.866667-81.066666-32-12.8-10.666667-34.133333-12.8-49.066667-2.133333-14.933333 10.666667-17.066667 27.733333-2.133333 38.4 4.266667 4.266667 44.8 49.066667 132.266666 49.066666s128-46.933333 132.266667-49.066666c12.8-10.666667 10.666667-27.733333-2.133333-36.266667-12.8-10.666667-36.266667-10.666667-49.066667 0z m0 0" fill="" p-id="17428"></path></svg>