<?xml version="1.0" standalone="no"?><!DOCTYPE svg PUBLIC "-//W3C//DTD SVG 1.1//EN" "http://www.w3.org/Graphics/SVG/1.1/DTD/svg11.dtd"><svg t="1632388692877" class="icon" viewBox="0 0 1024 1024" version="1.1" xmlns="http://www.w3.org/2000/svg" p-id="28463" xmlns:xlink="http://www.w3.org/1999/xlink" width="200" height="200"><defs><style type="text/css"></style></defs><path d="M860 1020c-40.8 0-81.6-15.2-112.8-46.4l-100-100c-9.6-9.6-20.8-17.6-33.6-23.2L124.8 629.6l-69.6-34.4c-27.2-13.6-45.6-36-49.6-60.8-4-21.6 4-43.2 20.8-60.8 21.6-21.6 56-32.8 89.6-31.2-8-28 0-58.4 22.4-80.8s55.2-32 87.2-28c-5.6-29.6 3.2-62.4 24.8-84s54.4-30.4 84-24.8c-4-32 5.6-65.6 28-87.2 22.4-22.4 52.8-29.6 80.8-21.6-1.6-33.6 9.6-68 31.2-89.6C491.2 9.6 512.8 1.6 535.2 5.6c24.8 4 47.2 22.4 60.8 49.6l34.4 69.6 220.8 489.6c5.6 12.8 13.6 24 23.2 33.6l99.2 100c30.4 30.4 47.2 70.4 47.2 112.8 0 42.4-16.8 83.2-47.2 112.8-32 30.4-72.8 46.4-113.6 46.4z m-752-545.6c-23.2 0-45.6 8-60 21.6-9.6 9.6-13.6 20.8-12 32.8 2.4 14.4 14.4 28 32 37.6l69.6 34.4 488.8 220c16 7.2 30.4 17.6 43.2 29.6l100 100c49.6 49.6 131.2 49.6 180.8 0 24-24 37.6-56 37.6-90.4 0-34.4-13.6-66.4-37.6-90.4l-99.2-100c-12-12.8-22.4-27.2-29.6-43.2L600.8 137.6l-34.4-68.8c-8.8-18.4-22.4-29.6-37.6-32-12-1.6-23.2 2.4-32.8 12-20.8 20.8-28 60-16 92 2.4 7.2 0 14.4-6.4 18.4-6.4 4-14.4 4-19.2-1.6-20-17.6-50.4-16.8-70.4 2.4-20.8 20.8-25.6 56.8-12 84.8 3.2 6.4 1.6 14.4-4 19.2-5.6 4.8-13.6 5.6-19.2 1.6-24-16-56.8-12.8-76.8 7.2s-23.2 53.6-7.2 77.6c4 6.4 3.2 14.4-1.6 19.2-4.8 5.6-12.8 7.2-19.2 4-28-13.6-64-8.8-84.8 11.2-19.2 19.2-20.8 49.6-2.4 69.6 4.8 5.6 5.6 13.6 1.6 19.2-4 6.4-12 8.8-18.4 6.4-9.6-4-20.8-5.6-32-5.6z" p-id="28464"></path><path d="M442.4 763.2c-2.4 0-4-0.8-5.6-2.4-3.2-3.2-3.2-8 0-11.2l313.6-313.6c3.2-3.2 8-3.2 11.2 0 3.2 3.2 3.2 8 0 11.2L448 760.8c-1.6 1.6-4 2.4-5.6 2.4z" p-id="28465"></path><path d="M699.2 506.4c-2.4 0-4.8-1.6-6.4-3.2L458.4 150.4c-2.4-4-1.6-8.8 2.4-11.2 4-2.4 8.8-1.6 11.2 2.4l233.6 352.8c2.4 4 1.6 8.8-2.4 11.2-0.8 0.8-2.4 0.8-4 0.8zM576.8 628.8c-1.6 0-3.2-0.8-4.8-1.6L247.2 364.8c-3.2-2.4-4-8-1.6-11.2 2.4-3.2 8-4 11.2-0.8l324.8 262.4c3.2 2.4 4 8 1.6 11.2-1.6 1.6-4 2.4-6.4 2.4zM514.4 691.2c-1.6 0-2.4 0-4-0.8L141.6 472c-4-2.4-4.8-7.2-3.2-11.2 2.4-4 7.2-4.8 11.2-3.2l368.8 218.4c4 2.4 4.8 7.2 3.2 11.2-1.6 2.4-4 4-7.2 4zM635.2 570.4c-2.4 0-4-0.8-5.6-2.4L352.8 257.6c-3.2-3.2-2.4-8 0.8-11.2 3.2-3.2 8-2.4 11.2 0.8l276.8 310.4c3.2 3.2 2.4 8-0.8 11.2-1.6 0.8-4 1.6-5.6 1.6zM771.2 982.4c-2.4 0-4-0.8-5.6-2.4l-89.6-89.6c-1.6-1.6-2.4-3.2-2.4-5.6 0-2.4 0.8-4 2.4-5.6L880 675.2c1.6-1.6 3.2-2.4 5.6-2.4 2.4 0 4 0.8 5.6 2.4l89.6 89.6c3.2 3.2 3.2 8 0 11.2l-204 204c-1.6 1.6-4 2.4-5.6 2.4z m-78.4-97.6l78.4 78.4 192-192-78.4-78.4-192 192z" p-id="28466"></path></svg>