<?xml version="1.0" standalone="no"?><!DOCTYPE svg PUBLIC "-//W3C//DTD SVG 1.1//EN" "http://www.w3.org/Graphics/SVG/1.1/DTD/svg11.dtd"><svg t="1632388207613" class="icon" viewBox="0 0 1024 1024" version="1.1" xmlns="http://www.w3.org/2000/svg" p-id="1633" xmlns:xlink="http://www.w3.org/1999/xlink" width="200" height="200"><defs><style type="text/css"></style></defs><path d="M918.40173 452.981838l-59.244693 442.516486c-1.37538 10.373255-14.892785 18.649755-30.208213 18.649755L579.517951 914.14808c-15.315428 0-28.832833-8.276501-30.221517-18.649755l-59.217063-442.48988-0.013304 0c-19.711732 0-35.680056-15.885805-35.680056-35.473933l0-35.474956c0-19.588127 15.968324-35.474956 35.680056-35.474956l214.106942 0L704.17301 243.061828c-0.217973-5.131881 0.47688-10.250458 2.477526-15.054881 2.287183-6.173606 6.302801-11.195993 11.407262-15.205307l97.210909-96.635921c13.940048-13.857613 36.537622-13.857613 50.47767 0 13.940048 13.850449 13.940048 36.310997 0 50.16247l-90.200974 89.651856 0 90.605577 142.74683 0c19.711732 0 35.693359 15.885805 35.693359 35.474956l0 35.474956C953.986615 437.081707 938.059224 452.92658 918.40173 452.981838zM604.783393 840.271512l192.882702 0 47.129275-387.263068-287.141251 0L604.783393 840.271512zM468.108087 734.325551 180.660855 734.325551c7.745722 42.008766 67.030326 74.67884 139.119061 74.67884l93.351863 0c23.053987 0 44.521784-3.620457 63.689094-9.555633l9.556025 71.451332c-19.765969 4.656043-40.3762 7.773034-62.048667 7.773034L308.658169 878.673124c-108.224181 0-198.813004-62.317301-210.710449-144.972812-1.198341-8.372691 2.293323-16.743336 9.604122-23.019273 6.608782-5.676279 15.880316-8.753361 25.673758-9.378601L97.517913 701.302437c-19.711732 0-35.686196-15.872502-35.686196-35.474956 0-19.574824 15.974464-35.459606 35.686196-35.459606l35.707686 0c-9.794465-0.61296-19.064976-3.702322-25.673758-9.379625-7.310799-6.274914-10.802463-14.646582-9.604122-23.01825 11.897445-82.654488 102.486268-144.960533 210.710449-144.960533l115.670062 0c2.10298 0 4.077019 0.394996 6.166696 0.435928l9.488484 70.78516c-8.698459-1.006933-17.662989-1.565658-26.851632-1.565658l-93.351863 0c-72.088735 0-131.373339 32.671097-139.119061 74.665537l269.097577 0L468.108087 734.325551z" p-id="1634"></path></svg>